<svg xmlns="http://www.w3.org/2000/svg" width="24" height="24" viewBox="0 0 24 24" fill="none">
<path d="M12 8C13.8812 8 15.6803 8.39022 17.3972 9.17068C19.1142 9.95113 20.5848 11.0832 21.8091 12.5668C21.9285 12.7213 21.9919 12.8913 21.9994 13.0768C22.0069 13.2622 21.9434 13.4245 21.8091 13.5636L19.7039 15.7427C19.5845 15.8663 19.4128 15.9359 19.1888 15.9513C18.9649 15.9668 18.7857 15.9204 18.6513 15.8122L16.0983 13.8418C16.0087 13.7645 15.9415 13.6795 15.8967 13.5868C15.852 13.4941 15.8296 13.3936 15.8296 13.2854V10.0632C15.2025 9.8159 14.5642 9.64204 13.9148 9.54158C13.2653 9.44113 12.6271 9.3909 12 9.3909C11.3729 9.3909 10.7347 9.44113 10.0852 9.54158C9.43576 9.64204 8.7975 9.8159 8.17044 10.0632V13.2854C8.17044 13.3936 8.14804 13.4941 8.10325 13.5868C8.05846 13.6795 7.99128 13.7645 7.9017 13.8418L5.34866 15.8122C5.1695 15.9513 4.9866 16.0131 4.79998 15.9977C4.61335 15.9822 4.44539 15.8972 4.29609 15.7427L2.19095 13.5636C2.05658 13.4245 1.99312 13.2622 2.00059 13.0768C2.00805 12.8913 2.07151 12.7213 2.19095 12.5668C3.41521 11.0832 4.88582 9.95113 6.60278 9.17068C8.31974 8.39022 10.1188 8 12 8Z" fill="white"/>
</svg>